<svg width="150" height="35" viewBox="0 0 150 35" fill="none" xmlns="http://www.w3.org/2000/svg">
<path d="M55.185 32.505C54.825 31.86 54.48 31.23 54.33 30.6C54.15 29.76 54.165 27.36 54.15 27.06C54.135 25.86 54.09 18.75 53.97 16.395C53.79 13.245 51.66 10.56 48.645 9.705C48.15 9.57 47.64 9.465 47.13 9.39C46.605 9.315 46.05 9.285 45.51 9.285C45.12 9.285 44.73 9.3 44.34 9.345C43.425 9.435 42.495 9.63 41.61 9.915C40.725 10.2 39.87 10.59 39.075 11.07C38.265 11.55 37.515 12.12 36.855 12.765C36.51 13.095 36.195 13.44 35.895 13.8C35.745 13.98 35.595 14.175 35.46 14.37C35.43 14.415 35.4 14.475 35.385 14.52C35.325 14.685 35.34 14.85 35.415 15C35.49 15.15 35.64 15.27 35.82 15.33C35.88 15.345 35.94 15.36 36 15.36C36.255 15.36 36.48 15.225 36.6 15C36.915 14.43 37.47 13.95 37.965 13.53C38.715 12.9 39.51 12.39 40.335 12C41.19 11.61 42.12 11.34 43.08 11.22C43.485 11.175 43.89 11.145 44.28 11.145C46.35 11.145 48.15 11.865 49.335 13.185C50.4 14.37 50.91 15.915 50.79 17.67C50.205 17.82 49.62 17.97 49.035 18.135C47.565 18.525 46.035 18.915 44.535 19.32L43.815 19.515C41.19 20.22 38.475 20.94 36.165 22.605C33.78 24.315 32.85 26.805 33.525 29.625C34.14 32.22 35.955 33.81 38.895 34.35C39.48 34.455 40.065 34.515 40.635 34.515C43.23 34.515 45.585 33.375 47.445 31.215C48.585 29.88 49.53 28.38 50.43 26.94C50.625 26.64 50.805 26.34 50.985 26.04C50.985 26.535 50.985 27.03 50.985 27.525C50.985 29.085 50.985 30.705 51.015 32.295C51.015 32.295 51.06 33.6 51.72 33.855C51.825 33.9 51.93 33.9 52.005 33.9C52.23 33.9 52.725 33.915 53.445 33.915H54.015C54.345 33.915 54.66 33.915 54.915 33.915C55.125 33.915 55.32 33.81 55.425 33.615C55.53 33.435 55.545 33.21 55.425 33.015C55.335 32.85 55.245 32.67 55.155 32.505H55.185ZM45.645 30.48C44.37 31.32 42.57 31.605 41.295 31.695C41.19 31.695 41.085 31.695 40.98 31.695C39.12 31.695 37.485 30.51 36.9 28.74C36.12 26.385 36.765 24.195 38.565 23.025C39.825 22.215 41.325 21.525 43.05 20.97C43.95 20.685 44.925 20.4 46.11 20.085C46.89 19.875 47.67 19.68 48.45 19.485L48.96 19.365C49.35 19.26 49.755 19.17 50.145 19.065C50.43 18.99 50.715 18.96 51 18.93C51.03 24.375 49.32 28.05 45.63 30.48H45.645ZM28.635 0.255H23.46C23.235 0.255 23.025 0.39 22.95 0.615C22.875 0.84 22.935 1.08 23.115 1.23C23.985 1.965 24.075 2.73 24.12 4.02C24.12 4.425 24.15 7.95 24.15 12.24C17.775 12.33 11.415 20.31 5.03999 20.415C5.03999 14.265 5.02499 7.14 5.03999 5.31V5.265C5.03999 3.735 5.05499 2.295 6.44999 1.23C6.64499 1.08 6.71999 0.84 6.64499 0.615C6.56999 0.39 6.35999 0.24 6.11999 0.24H0.929986C0.704985 0.24 0.494986 0.375 0.419986 0.6C0.344986 0.825 0.404986 1.065 0.584986 1.215C1.45499 1.95 1.54499 2.715 1.58999 4.005C1.61999 5.01 1.64999 25.545 1.63499 28.875V28.92C1.63499 30.45 1.61999 31.89 0.224986 32.955C0.0299856 33.105 -0.0450144 33.345 0.0299856 33.57C0.104986 33.795 0.314986 33.945 0.554986 33.945H5.72999C5.95499 33.945 6.16499 33.81 6.23999 33.585C6.31499 33.36 6.25499 33.12 6.07499 32.97C5.20499 32.235 5.11499 31.47 5.06999 30.18C5.06999 29.775 5.03999 26.25 5.03999 21.96C11.415 21.855 17.775 13.875 24.15 13.785C24.15 19.935 24.165 27.06 24.15 28.89V28.935C24.15 30.465 24.135 31.905 22.74 32.97C22.545 33.12 22.47 33.36 22.545 33.585C22.62 33.81 22.83 33.96 23.07 33.96H28.245C28.47 33.96 28.68 33.825 28.755 33.6C28.83 33.375 28.77 33.135 28.59 32.985C27.72 32.25 27.63 31.485 27.585 30.195C27.555 29.19 27.525 8.655 27.54 5.325V5.28C27.54 3.75 27.555 2.31 28.95 1.245C29.145 1.095 29.22 0.855 29.145 0.63C29.07 0.405 28.86 0.255 28.62 0.255H28.635ZM124.065 14.97C124.605 15.495 125.145 16.035 125.67 16.575C126.075 16.98 126.735 16.995 127.14 16.59C127.68 16.065 128.22 15.54 128.775 15.015C129.18 14.61 129.195 13.95 128.775 13.53C128.22 12.975 127.68 12.42 127.125 11.88C126.705 11.46 126.03 11.46 125.64 11.88C125.115 12.42 124.59 12.96 124.065 13.515C123.66 13.92 123.675 14.58 124.08 14.985L124.065 14.97ZM109.725 16.59C110.13 16.995 110.79 16.98 111.195 16.575C111.72 16.035 112.26 15.495 112.8 14.97C113.205 14.565 113.22 13.905 112.815 13.5C112.29 12.96 111.765 12.42 111.24 11.865C110.835 11.46 110.175 11.445 109.755 11.865C109.2 12.42 108.645 12.96 108.105 13.515C107.685 13.935 107.685 14.61 108.105 15C108.645 15.525 109.185 16.05 109.74 16.575L109.725 16.59ZM113.865 13.155C114 13.29 114.21 13.335 114.39 13.26C114.465 13.23 114.54 13.2 114.615 13.17C115.815 12.66 117.105 12.405 118.425 12.405C119.745 12.405 121.02 12.66 122.235 13.17C122.31 13.2 122.4 13.245 122.475 13.275C122.655 13.35 122.865 13.32 123 13.17L124.5 11.67C124.755 11.415 124.68 10.98 124.365 10.815C122.595 9.885 120.57 9.36 118.425 9.36C116.28 9.36 114.27 9.885 112.5 10.815C112.185 10.98 112.11 11.415 112.365 11.67L113.865 13.17V13.155ZM73.44 9.39C73.32 9.375 73.215 9.36 73.095 9.33C72.57 9.225 72.03 9.165 71.505 9.165C68.49 9.165 65.625 10.95 63.87 13.935C63.735 14.175 63.585 14.4 63.45 14.64V10.41C63.45 9.9 63.03 9.48 62.52 9.48C62.4 9.48 62.265 9.51 62.16 9.555L61.005 10.05C60.495 10.275 59.295 10.83 58.815 11.055C58.635 11.145 58.515 11.31 58.515 11.505C58.515 11.7 58.605 11.88 58.785 11.985C59.445 12.36 59.55 12.45 59.565 12.465C59.79 12.66 59.955 12.885 60.075 13.14C60.42 13.83 60.42 14.685 60.42 15.615C60.42 19.56 60.42 29.04 60.42 29.04C60.42 30.45 60.42 31.77 59.16 32.745C58.95 32.91 58.875 33.165 58.965 33.42C59.055 33.66 59.28 33.825 59.535 33.825H64.29C64.53 33.825 64.755 33.675 64.845 33.45C64.935 33.225 64.89 32.955 64.71 32.775C63.78 31.875 63.69 30.675 63.675 29.43C63.645 28.005 63.66 26.55 63.66 25.14C63.66 23.28 63.645 20.76 63.615 19.47C63.555 17.565 64.095 15.81 65.295 13.95C66.165 12.615 66.465 12.27 67.14 12.27C67.545 12.27 68.1 12.405 68.835 12.585C70.17 12.915 71.475 13.11 72.72 13.185C72.75 13.185 72.78 13.185 72.825 13.185C73.425 13.185 74.1 12.87 74.595 12.345C75.03 11.88 75.27 11.34 75.255 10.845C75.195 9.615 74.175 9.45 73.5 9.345L73.44 9.39ZM129.06 15.975L127.35 17.685C127.245 17.79 127.23 17.94 127.29 18.06C127.335 18.165 127.38 18.255 127.425 18.36C127.935 19.56 128.19 20.85 128.19 22.17C128.19 23.49 127.935 24.765 127.425 25.98C127.38 26.085 127.335 26.175 127.29 26.28C127.23 26.415 127.26 26.565 127.35 26.655L129.06 28.365C129.24 28.545 129.555 28.5 129.675 28.275C130.665 26.46 131.22 24.375 131.22 22.17C131.22 19.965 130.665 17.88 129.675 16.065C129.555 15.84 129.24 15.795 129.06 15.975ZM148.65 9.3C148.53 9.285 147.51 9.165 146.97 9.165C143.94 9.165 141.09 10.95 139.335 13.935C139.2 14.175 139.05 14.4 138.915 14.64V10.41C138.915 9.9 138.495 9.48 137.985 9.48C137.865 9.48 137.73 9.51 137.625 9.555L136.47 10.05C135.96 10.275 134.76 10.83 134.265 11.055C134.085 11.145 133.965 11.31 133.965 11.505C133.965 11.7 134.055 11.88 134.235 11.985C134.895 12.36 135 12.465 135.015 12.465C135.24 12.66 135.405 12.885 135.525 13.14C135.87 13.83 135.87 14.685 135.87 15.615C135.87 19.575 135.87 24.24 135.87 28.92V29.04C135.87 30.45 135.87 31.77 134.61 32.745C134.4 32.91 134.325 33.165 134.415 33.42C134.505 33.66 134.73 33.825 134.985 33.825H139.74C139.98 33.825 140.205 33.675 140.295 33.45C140.385 33.225 140.34 32.955 140.16 32.775C139.23 31.875 139.14 30.675 139.125 29.43C139.095 28.005 139.125 21.375 139.065 19.485C139.005 17.58 139.545 15.825 140.745 13.965C141.615 12.63 141.915 12.285 142.59 12.285C142.995 12.285 143.55 12.42 144.285 12.6C145.62 12.93 147.54 13.23 148.275 13.2C148.875 13.185 149.535 12.885 150.045 12.36C150.48 11.895 150.72 11.355 150.705 10.86C150.645 9.63 149.37 9.375 148.695 9.27L148.65 9.3ZM127.125 27.81C126.72 27.405 126.06 27.42 125.655 27.825C125.13 28.365 124.59 28.905 124.05 29.43C123.645 29.835 123.63 30.495 124.035 30.9C124.56 31.44 125.085 31.98 125.61 32.535C126.015 32.94 126.675 32.955 127.095 32.535C127.65 31.98 128.205 31.44 128.745 30.885C129.165 30.465 129.165 29.79 128.745 29.4C128.205 28.875 127.665 28.35 127.11 27.825L127.125 27.81ZM112.785 29.43C112.245 28.905 111.705 28.365 111.18 27.825C110.775 27.42 110.115 27.405 109.71 27.81C109.17 28.335 108.63 28.86 108.075 29.385C107.67 29.79 107.655 30.45 108.075 30.87C108.63 31.425 109.17 31.98 109.725 32.52C110.145 32.94 110.82 32.94 111.21 32.52C111.735 31.98 112.26 31.44 112.785 30.885C113.19 30.48 113.175 29.82 112.77 29.415L112.785 29.43ZM122.97 31.155C122.835 31.02 122.625 30.975 122.46 31.065C122.385 31.11 122.295 31.14 122.205 31.17C121.005 31.68 119.715 31.935 118.395 31.935C117.075 31.935 115.8 31.68 114.585 31.17C114.51 31.14 114.435 31.11 114.36 31.065C114.18 30.99 113.985 31.02 113.85 31.155L112.335 32.67C112.08 32.925 112.155 33.345 112.47 33.51C114.24 34.44 116.265 34.965 118.41 34.965C120.555 34.965 122.58 34.44 124.365 33.495C124.68 33.33 124.74 32.91 124.5 32.655L122.985 31.14L122.97 31.155ZM109.56 26.34C109.5 26.22 109.44 26.085 109.395 25.965C108.885 24.765 108.63 23.475 108.63 22.155C108.63 20.835 108.885 19.56 109.395 18.345C109.425 18.255 109.47 18.18 109.5 18.09C109.575 17.91 109.545 17.715 109.41 17.58L107.685 15.855C107.55 15.72 107.31 15.75 107.205 15.93C106.185 17.775 105.6 19.89 105.6 22.155C105.6 24.42 106.185 26.535 107.205 28.38C107.31 28.56 107.535 28.59 107.685 28.455L109.515 26.625C109.515 26.625 109.605 26.445 109.56 26.355V26.34ZM91.56 9.195C89.895 9.195 88.185 9.555 86.46 10.275C85.335 10.74 84.255 11.34 83.115 11.955C82.725 12.165 82.335 12.39 81.915 12.6V1.05C81.915 0.465 81.435 0 80.865 0C80.67 0 80.475 0.06 80.31 0.165C79.44 0.705 78.195 1.47 77.25 2.025C77.055 2.13 76.935 2.34 76.935 2.565C76.935 2.79 77.055 2.985 77.25 3.105C78.825 4.005 78.825 5.415 78.84 6.915C78.84 7.065 78.84 28.59 78.84 32.955C78.84 33.225 78.945 33.48 79.125 33.66C79.32 33.855 79.575 33.96 79.845 33.96C80.115 33.96 80.385 33.84 80.58 33.645L82.05 32.085C84.495 33.675 87.045 34.485 89.61 34.485C90.96 34.485 92.34 34.26 93.705 33.81C98.445 32.265 101.685 27.765 101.97 22.365C102.135 19.095 101.625 16.545 100.32 14.325C98.43 11.1 95.235 9.24 91.545 9.24L91.56 9.195ZM98.79 26.16C97.995 30.405 95.085 32.94 91.02 32.94C89.31 32.94 87.54 32.46 86.07 31.59C83.07 29.835 82.035 28.395 82.035 21.645C82.035 21.21 82.02 20.79 82.02 20.355C82.02 19.86 82.02 19.365 82.02 18.855C82.02 17.565 82.005 16.245 82.065 14.94C82.08 14.52 82.38 13.98 82.695 13.74C84.96 12.075 87.405 11.19 89.94 11.13C90.045 11.13 90.15 11.13 90.24 11.13C93.48 11.13 95.895 12.615 97.41 15.555C99.045 18.75 99.525 22.32 98.79 26.16Z" fill="#A85E8A"/>
</svg>
